<?xml version="1.0" encoding="utf-8"?>
<!-- Generator: Adobe Illustrator 18.1.1, SVG Export Plug-In . SVG Version: 6.00 Build 0)  -->
<svg version="1.1" id="Layer_1" xmlns="http://www.w3.org/2000/svg" xmlns:xlink="http://www.w3.org/1999/xlink" x="0px" y="0px"
	 viewBox="0 0 200 200" enable-background="new 0 0 200 200" xml:space="preserve">
<g>
	<path fill="#EDC31B" d="M99.9,199.4c-54.8,0-99.4-44.6-99.4-99.4S45.1,0.6,99.9,0.6s99.4,44.6,99.4,99.4S154.8,199.4,99.9,199.4z"
		/>
	<g>
		<path d="M99.9,1.1c54.5,0,98.9,44.3,98.9,98.9s-44.3,98.9-98.9,98.9S1.1,154.5,1.1,100S45.4,1.1,99.9,1.1 M99.9,0
			C44.7,0,0,44.8,0,100s44.8,100,100,100s100-44.8,100-100S155.1,0,99.9,0L99.9,0z"/>
	</g>
</g>
<g>
	<path fill="#2576B5" d="M99.9,188.6c-48.8,0-88.6-39.7-88.6-88.6s39.7-88.6,88.6-88.6s88.6,39.7,88.6,88.6S148.8,188.6,99.9,188.6z
		"/>
	<path d="M99.9,12c48.5,0,88,39.5,88,88s-39.5,88-88,88s-88-39.5-88-88S51.4,12,99.9,12 M99.9,10.8c-49.2,0-89.1,39.9-89.1,89.1
		s39.9,89.1,89.1,89.1s89.1-39.9,89.1-89.1S149.2,10.8,99.9,10.8L99.9,10.8z"/>
</g>
<g>
	<path fill="#FFFFFF" d="M131.4,66l-4-3.5c0.9-2.1,5.4-12.9,11.7-21.5c5.7-7.9,9.8-8.5,10.9-8.5c0.2,0,0.3,0,0.3,0
		c0.9,0.1,1.5,0.6,1.9,1.3c1.4,2.3,0.6,7.4-0.7,11.4c-0.1,0.3-2.4,10.1-2.7,11.2l-8.5,11.4L131.4,66z"/>
	<path d="M149.9,33c0.1,0,0.2,0,0.2,0c0.7,0.1,1.2,0.4,1.5,1c1.3,2.2,0.5,7.1-0.8,11l0,0.1l0,0c0,0.2-2.3,9.4-2.7,11l-8.2,11
		l-8.3-1.7l-3.6-3.2c1.1-2.8,5.6-12.9,11.4-21C145.2,33.4,149.2,33,149.9,33 M149.9,31.9c-1.3,0-5.5,0.7-11.3,8.7
		c-7,9.7-11.9,22-11.9,22l4.4,3.9l9.3,1.9l8.8-11.8c0,0,2.7-11,2.7-11.2c0-0.2,4.3-12.5-1.6-13.5C150.3,32,150.2,31.9,149.9,31.9
		L149.9,31.9z"/>
</g>
<g>
	<path fill="#FFFFFF" d="M173.4,129.2c-1.8,0-3.9-0.2-6-0.6c-0.3,0-10.3-1.2-11.5-1.4l-12.3-7.1l0.8-9l3.1-4.4
		c2.2,0.6,13.5,3.9,22.7,9.1c9.9,5.5,9.7,10.1,9.7,10.1C179.7,128.1,177.6,129.2,173.4,129.2L173.4,129.2z"/>
	<path d="M147.6,107.3c2.9,0.8,13.5,4,22.2,8.9c9.5,5.3,9.4,9.6,9.4,9.6c-0.1,1.8-2.1,2.7-5.9,2.7c-1.8,0-3.9-0.2-5.9-0.6l-0.1,0
		l0,0c-0.2,0-9.6-1.2-11.2-1.4l-11.9-6.9l0.7-8.5L147.6,107.3 M147.2,106.1l-3.4,4.8l-0.8,9.5l12.7,7.3c0,0,11.2,1.4,11.4,1.4
		c0.1,0,3.1,0.7,6.2,0.7c3.4,0,6.8-0.7,7-3.8c0,0,0.4-4.8-10-10.6C160,109.5,147.2,106.1,147.2,106.1L147.2,106.1z"/>
</g>
<g>
	<path fill="#FFFFFF" d="M99.4,183.1c-3.1,0-5.1-5.6-6-10.9c-0.1-0.3-2.4-10.1-2.7-11.2l2.3-14l8.7-2.4l5.2,1.3
		c0.2,2.3,1.1,14-0.5,24.5c-1.7,11.2-6,12.6-6.1,12.7C100,183.1,99.7,183.1,99.4,183.1z"/>
	<path d="M101.7,145.1l4.6,1.2c0.2,3,1,14-0.5,23.9c-1.6,10.7-5.6,12.2-5.7,12.2c-0.3,0.1-0.5,0.1-0.7,0.1c-2.5,0-4.6-5.2-5.4-10.4
		l0-0.1l0,0c0-0.2-2.3-9.4-2.7-11l2.2-13.6L101.7,145.1 M101.7,143.9l-9.1,2.6L90.1,161c0,0,2.7,11,2.7,11.2
		c0,0.2,1.7,11.5,6.5,11.5c0.3,0,0.7-0.1,1.1-0.2c0,0,4.7-1.3,6.4-13.1c1.8-11.8,0.5-25,0.5-25L101.7,143.9L101.7,143.9z"/>
</g>
<g>
	<path fill="#FFFFFF" d="M50.2,56.4c-0.3-1.2-2.6-10.9-2.7-11.1c-1.3-4.1-2.2-9.2-0.8-11.6c0.4-0.7,1.1-1.1,1.9-1.3c0,0,0.1,0,0.3,0
		c1.1,0,5.2,0.6,10.9,8.5c6.2,8.6,10.8,19.4,11.7,21.5l-4,3.5l-8.8,1.8L50.2,56.4z"/>
	<path d="M49,33c0.7,0,4.8,0.4,10.4,8.3c5.9,8.1,10.3,18.3,11.4,21l-3.6,3.2L59,67.2l-8.2-11c-0.4-1.6-2.6-10.8-2.7-11l0-0.1l0,0
		c-1.2-3.9-2.1-8.8-0.8-11c0.4-0.6,0.8-0.9,1.5-1C48.8,33.1,48.9,33,49,33 M49,31.9c-0.3,0-0.4,0-0.4,0C42.8,33,47,45.3,47,45.5
		c0,0.2,2.7,11.2,2.7,11.2l8.8,11.8l9.3-1.9l4.4-3.9c0,0-4.9-12.3-11.9-22C54.5,32.6,50.3,31.9,49,31.9L49,31.9z"/>
</g>
<g>
	<path fill="#FFFFFF" d="M25.5,129.2c-4.2,0-6.3-1.1-6.4-3.3c0-0.1-0.2-4.6,9.7-10.1c9.3-5.2,20.6-8.5,22.7-9.1l3.1,4.4l0.8,9
		L43,127.1c-1.2,0.1-11.1,1.3-11.3,1.4C29.5,128.9,27.3,129.2,25.5,129.2z"/>
	<path d="M51.3,107.3l2.7,3.9l0.7,8.5l-11.9,6.9c-1.6,0.2-11,1.3-11.2,1.4l-0.1,0l0,0c-2.1,0.4-4.2,0.6-5.9,0.6
		c-3.8,0-5.8-0.9-5.9-2.8c0,0-0.1-4.3,9.4-9.6C37.8,111.4,48.4,108.2,51.3,107.3 M51.8,106.1c0,0-12.8,3.4-23.2,9.2
		c-10.4,5.8-10,10.6-10,10.6c0.2,3.1,3.6,3.8,7,3.8c3.1,0,6.1-0.6,6.2-0.7c0.2,0,11.4-1.4,11.4-1.4l12.7-7.3l-0.8-9.5L51.8,106.1
		L51.8,106.1z"/>
</g>
<g>
	<path fill="#FFFFFF" d="M112,180.7c-3.3,0-6.1-1.1-8.1-3.3c-2-2.1-3-5.2-2.7-8.3c0.1-0.6,2.6-15.2,2.7-18.4c0-1.4-0.3-2.6-1.1-3.4
		c-1-1.1-2.4-1.2-3.1-1.2s-2.1,0.2-3.1,1.2c-0.8,0.8-1.2,2-1.1,3.4c0.1,3.1,2.6,17.8,2.7,18.4c0.2,3.1-0.8,6.2-2.7,8.3
		c-2,2.1-4.8,3.3-8.1,3.3c-7.4,0-21.1-8.9-24.4-11.2c-3.4-2.5-6.9-3.6-8.8-3.7c0,0,0,0,0,0c-1.5,0-3.6,0.3-4.6,0.5
		C49.2,159,43,154.3,37,149.7c-1.2-1-2.5-1.9-3.7-2.9c-6.8-5.6-7.5-10.2-7.5-13.7c0.1-3.2,0.9-4.5,3.6-7.3c2.1-2.2,13.2-3,17.4-3.3
		c1-0.1,1.8-0.1,2.1-0.2c2.3-0.3,6.1-1.8,6.1-5.1c0-3.3-2.6-4.6-4.9-4.7c0,0,0,0,0,0c-1.5,0-3.9,1.1-8,2.8c-2,0.9-4.4,1.9-7.3,3.1
		c-3.3,1.3-5.8,2-7.8,2c-2.6,0-4.3-1.1-6.5-2.7c-3.2-2.3-3.4-6.2-3.5-10.4c0-0.6,0-1.1-0.1-1.7c-0.2-4.7,4.3-21.2,4.7-22.4
		c0.4-1.2,0.3-5.8-1.3-8.2l-0.3-0.4c-1.1-1.7-1.1-1.7,2-4.1c3.1-2.4,5.6-6.6,7.7-12.8c1.5-4.5,7.9-17,15.4-17c0.2,0,0.4,0,0.6,0
		c7.3,0.7,11.4,8.9,12.7,15.8c1.1,6,5.1,8.6,6.9,8.6c0.5,0,2.8-0.2,4.1-1.8c0.7-0.8,1-1.8,0.8-3c-0.1-1.4-2-3.7-5.3-7.7
		c-4.3-5.2-9.6-11.7-9.7-16c-0.1-2.4,0.9-4.7,2.7-6.6c3.8-3.9,10.9-6,20-6c0.9,0,1.8,0,2.7,0.1c1,0,1.9,0.1,2.8,0.1
		c12.3,0,15-4,16-5.5c0,0,0-0.1,0.1-0.1c0,0,0,0.1,0.1,0.1c1,1.5,3.7,5.5,16,5.5c0.9,0,1.8,0,2.8-0.1c0.9,0,1.8-0.1,2.7-0.1
		c9.1,0,16.2,2.1,20,6c1.9,1.9,2.8,4.2,2.7,6.6c-0.1,4.3-5.4,10.8-9.7,16c-3.3,4-5.1,6.3-5.3,7.7c-0.1,1.2,0.2,2.2,0.8,3
		c1.3,1.5,3.5,1.7,4,1.8c0,0,0,0,0,0c1.9,0,5.9-2.6,7-8.6c1.3-6.9,5.4-15.1,12.7-15.8c0.2,0,0.4,0,0.6,0c7.4,0,13.9,12.4,15.4,17
		c2.1,6.2,4.6,10.4,7.7,12.8c3.1,2.4,3.1,2.4,2,4.1l-0.3,0.4c-1.6,2.4-1.7,7-1.3,8.2c0.4,1.2,5,17.7,4.7,22.4c0,0.6-0.1,1.1-0.1,1.7
		c-0.2,4.1-0.3,8.1-3.5,10.4c-2.2,1.6-3.9,2.7-6.5,2.7l0,0c-2,0-4.4-0.6-7.8-2c-2.8-1.1-5.3-2.2-7.3-3.1c-4-1.8-6.5-2.8-7.9-2.8
		c-2.5,0.1-5,1.4-5,4.7c0,3.4,3.8,4.8,6.1,5.1c0.3,0,1,0.1,2.1,0.2c4.2,0.3,15.3,1.1,17.4,3.3c2.7,2.8,3.5,4.2,3.6,7.3
		c0.1,3.4-0.7,8.1-7.5,13.7c-1.2,1-2.4,1.9-3.7,2.9c-6,4.6-12.1,9.3-12.5,16.7c-1-0.2-3.1-0.5-4.5-0.5c-2,0-5.5,1.2-8.9,3.7
		C133.1,171.9,119.4,180.7,112,180.7z"/>
	<path d="M99.7,19.4c1.4,1.8,4.8,5.2,16.1,5.2c0.9,0,1.8,0,2.8-0.1c0.9,0,1.8-0.1,2.7-0.1c9,0,15.9,2.1,19.6,5.9
		c1.8,1.8,2.7,4,2.6,6.2c-0.1,4.1-5.6,10.8-9.6,15.7c-3.4,4.2-5.2,6.5-5.4,8c-0.1,1.3,0.2,2.5,1,3.4c1.5,1.7,3.9,1.9,4.4,1.9l0.1,0
		h0c2,0,6.3-2.7,7.5-9.1c1.3-6.7,5.2-14.7,12.2-15.3c0.2,0,0.4,0,0.5,0c7.1,0,13.4,12.3,14.8,16.6c2.1,6.3,4.7,10.6,7.9,13.1
		c0.7,0.6,2.4,1.9,2.5,2.3c0,0.2-0.4,0.7-0.6,1.1l-0.3,0.4c-1.7,2.6-1.8,7.5-1.3,8.7c0.4,1.1,5,17.7,4.7,22.2c0,0.6-0.1,1.1-0.1,1.7
		c-0.2,4.2-0.3,7.8-3.3,9.9c-2.1,1.6-3.7,2.6-6.2,2.6c-1.9,0-4.3-0.6-7.6-1.9c-2.8-1.1-5.3-2.2-7.3-3.1c-4.3-1.8-6.6-2.9-8.1-2.9
		l-0.1,0l0,0c-2.6,0.1-5.4,1.5-5.4,5.2c0,3.7,4.1,5.3,6.6,5.7c0.3,0,1,0.1,2.1,0.2c3.7,0.3,15.1,1.1,17,3.1c2.6,2.7,3.4,4,3.4,7
		c0.1,3.3-0.7,7.8-7.3,13.2c-1.2,1-2.4,1.9-3.7,2.9c-5.9,4.5-12,9.2-12.6,16.5c-1.1-0.2-2.8-0.4-4-0.4l-0.2,0c-2,0-5.6,1.2-9.1,3.8
		c-3.2,2.4-16.8,11.1-24.1,11.1c-3.1,0-5.8-1.1-7.7-3.1c-1.9-2-2.8-4.9-2.6-7.8c0.1-0.6,2.6-15.3,2.7-18.5c0.1-1.6-0.4-2.9-1.3-3.8
		c-0.9-0.9-2.1-1.4-3.5-1.4c-1.4,0-2.7,0.5-3.5,1.4c-0.9,0.9-1.3,2.2-1.3,3.8c0.1,3.2,2.6,17.9,2.7,18.4c0.2,3-0.7,5.9-2.6,7.9
		c-1.9,2-4.5,3.1-7.7,3.1c-7.2,0-20.8-8.8-24.1-11.1c-3.5-2.5-7.1-3.7-9.1-3.8l-0.2,0c-1.1,0-2.8,0.2-4,0.4
		c-0.7-7.2-6.7-11.9-12.6-16.5c-1.2-0.9-2.5-1.9-3.7-2.9c-6.6-5.4-7.3-9.9-7.3-13.2c0.1-3,0.8-4.2,3.4-7c1.9-2,13.3-2.8,17-3.1
		c1.1-0.1,1.8-0.1,2.1-0.2c2.5-0.4,6.6-2,6.6-5.7c0-3.7-2.8-5.1-5.4-5.2l-0.1,0h0c-1.5,0-3.9,1-8.1,2.9c-2,0.9-4.4,1.9-7.3,3.1
		c-3.3,1.3-5.7,1.9-7.6,1.9c-2.4,0-4-1-6.2-2.6c-3-2.2-3.1-5.8-3.3-9.9c0-0.6,0-1.1-0.1-1.7c-0.2-4.5,4.3-21.1,4.7-22.2
		c0.4-1.2,0.4-6-1.3-8.7l-0.3-0.4c-0.3-0.4-0.6-0.9-0.6-1.1c0.1-0.4,1.8-1.7,2.5-2.3c3.2-2.5,5.8-6.8,7.9-13.1
		c1.4-4.3,7.8-16.6,14.8-16.6c0.2,0,0.4,0,0.5,0c7,0.6,10.9,8.7,12.2,15.3c1.2,6.4,5.5,9.1,7.5,9.1l0.1,0l0,0c0.5,0,2.9-0.2,4.4-1.9
		c0.8-0.9,1.1-2.1,1-3.4c-0.2-1.6-2-3.8-5.4-8c-4-4.9-9.4-11.6-9.6-15.7c-0.1-2.3,0.8-4.4,2.6-6.2c3.7-3.8,10.6-5.9,19.6-5.9
		c0.9,0,1.8,0,2.7,0.1c1,0,1.9,0.1,2.8,0.1C94.9,24.6,98.3,21.3,99.7,19.4 M99.7,17.7c-0.8,0-1.2,5.8-16.1,5.8c-0.9,0-1.8,0-2.8-0.1
		c-0.9,0-1.9-0.1-2.7-0.1c-15.7,0-23.5,6.2-23.3,13.2c0.2,7.4,14.6,20.5,15,23.8c0.3,3.3-3.1,4.1-4.3,4.1c0,0,0,0-0.1,0
		c-1.3,0-5.3-2.2-6.4-8.2c-1.1-6.1-5-15.5-13.2-16.3c-0.2,0-0.4,0-0.6,0c-7.9,0-14.5,13.1-15.9,17.4c-1.5,4.4-3.8,9.7-7.5,12.6
		c-3.8,2.9-3.3,3-1.8,5.2s1.6,6.7,1.2,7.7c-0.3,1-5,17.8-4.8,22.6c0.3,4.8-0.1,9.7,3.8,12.5c2.3,1.6,4.1,2.8,6.8,2.8
		c2,0,4.5-0.6,8-2c8.3-3.4,13-5.8,15-5.8c0,0,0.1,0,0.1,0c1.9,0.1,4.3,1,4.4,4.1c0,3.1-4,4.3-5.6,4.6c-1.7,0.2-17.1,0.8-19.8,3.6
		c-2.7,2.8-3.6,4.3-3.7,7.7c-0.1,3.4,0.7,8.3,7.7,14.1C40,153,49,158,49,167c0,0,3.2-0.6,5-0.6c0,0,0.1,0,0.1,0
		c1.7,0,5.1,1.1,8.4,3.5c3.3,2.4,17.1,11.3,24.7,11.3c7.6,0,11.8-5.9,11.4-12.2c0,0-2.6-15.2-2.7-18.3c-0.1-3.1,2-4,3.7-4
		s3.8,0.9,3.7,4c-0.1,3.1-2.7,18.3-2.7,18.3c-0.5,6.4,3.8,12.2,11.4,12.2s21.4-9,24.7-11.3c3.3-2.4,6.7-3.5,8.4-3.5c0,0,0.1,0,0.1,0
		c1.8,0,5,0.6,5,0.6c0-9,8.9-14,16-19.8c7-5.8,7.7-10.7,7.7-14.1c-0.1-3.4-1-4.9-3.7-7.7c-2.7-2.8-18.1-3.4-19.8-3.6
		c-1.7-0.2-5.7-1.5-5.6-4.6s2.5-4.1,4.4-4.1c0,0,0.1,0,0.1,0c2,0,6.7,2.5,15,5.8c3.5,1.4,6,2,8,2c2.8,0,4.6-1.1,6.8-2.8
		c3.9-2.8,3.6-7.7,3.8-12.5c0.3-4.8-4.4-21.6-4.8-22.6c-0.3-1-0.3-5.4,1.2-7.7c1.5-2.3,1.9-2.3-1.8-5.2c-3.8-2.9-6-8.2-7.5-12.6
		c-1.4-4.3-8-17.4-15.9-17.4c-0.2,0-0.4,0-0.6,0c-8.2,0.7-12,10.2-13.2,16.3c-1.1,6-5.1,8.2-6.4,8.2c0,0,0,0-0.1,0
		c-1.3-0.1-4.7-0.8-4.3-4.1s14.7-16.4,15-23.8c0.2-7-7.6-13.2-23.3-13.2c-0.9,0-1.8,0-2.7,0.1c-1,0-1.9,0.1-2.8,0.1
		C100.9,23.5,100.5,17.7,99.7,17.7L99.7,17.7z"/>
</g>
<g>
	<line fill="#FFFFFF" x1="99.7" y1="24.4" x2="99.7" y2="61.6"/>
	<path d="M99.7,62.2c-0.3,0-0.6-0.2-0.6-0.6V24.4c0-0.3,0.2-0.6,0.6-0.6s0.6,0.2,0.6,0.6v37.2C100.2,61.9,100,62.2,99.7,62.2z"/>
</g>
<g>
	<path d="M103.6,57.8c-0.3,0-0.5-0.2-0.6-0.5c-0.1-3.7,0.8-13.5,0.8-13.9c0-0.3,0.3-0.5,0.6-0.5c0.3,0,0.5,0.3,0.5,0.6
		c0,0.1-0.9,10.1-0.8,13.7C104.2,57.6,104,57.8,103.6,57.8C103.6,57.8,103.6,57.8,103.6,57.8z"/>
</g>
<g>
	<path d="M107.5,58.5C107.5,58.5,107.5,58.5,107.5,58.5c-0.3,0-0.6-0.3-0.6-0.6c0.1-11.2,2.2-15.9,2.3-16c0.1-0.3,0.5-0.4,0.7-0.3
		c0.3,0.1,0.4,0.5,0.3,0.7c0,0-2.1,4.6-2.2,15.6C108.1,58.3,107.8,58.5,107.5,58.5z"/>
</g>
<g>
	<path d="M111.9,59C111.9,59,111.9,59,111.9,59c-0.3,0-0.6-0.3-0.6-0.6c0.1-11.3,3.7-15.4,3.9-15.6c0.2-0.2,0.6-0.2,0.8,0
		c0.2,0.2,0.2,0.6,0,0.8c0,0-3.5,4-3.6,14.8C112.4,58.7,112.2,59,111.9,59z"/>
</g>
<g>
	<path d="M116.4,59.2C116.4,59.2,116.4,59.2,116.4,59.2c-0.3,0-0.6-0.3-0.6-0.6c0.5-11.1,5.7-14.6,5.9-14.7c0.3-0.2,0.6-0.1,0.8,0.2
		c0.2,0.3,0.1,0.6-0.2,0.8c0,0-4.9,3.4-5.4,13.8C117,59,116.7,59.2,116.4,59.2z"/>
</g>
<g>
	<path d="M120.5,59.7C120.5,59.7,120.5,59.7,120.5,59.7c-0.3,0-0.6-0.3-0.6-0.6c0.1-11.5,6.9-14.6,7.2-14.8c0.3-0.1,0.6,0,0.7,0.3
		c0.1,0.3,0,0.6-0.3,0.7c-0.3,0.1-6.5,3-6.6,13.8C121,59.5,120.8,59.7,120.5,59.7z"/>
</g>
<g>
	<path d="M125.3,60.5C125.3,60.5,125.3,60.5,125.3,60.5c-0.4,0-0.6-0.3-0.6-0.6c0.8-9.8,7.4-13.7,7.7-13.9c0.3-0.2,0.6-0.1,0.8,0.2
		c0.2,0.3,0.1,0.6-0.2,0.8c-0.1,0-6.4,3.9-7.2,13.1C125.8,60.3,125.6,60.5,125.3,60.5z"/>
</g>
<g>
	<path d="M135.2,68.5c-0.6,0-0.9-0.2-1-0.3c-0.2-0.2-0.3-0.5-0.1-0.8c0.2-0.2,0.5-0.3,0.8-0.1c0,0,0.3,0.1,0.8,0
		c1.3-0.3,4.2-2.2,8.9-10.7c0.2-0.3,0.5-0.4,0.8-0.2c0.3,0.2,0.4,0.5,0.2,0.8c-4.8,8.6-8,10.9-9.8,11.2
		C135.6,68.4,135.4,68.5,135.2,68.5z"/>
</g>
<g>
	<path fill="none" stroke="#000000" stroke-width="0.5" stroke-linecap="round" stroke-miterlimit="10" d="M137,70.4"/>
</g>
<g>
	<path d="M137,70.9c-0.2,0-0.4-0.1-0.5-0.4c-0.1-0.3,0-0.6,0.3-0.7c8.9-3.1,11.2-10.5,11.3-10.6c0.1-0.3,0.4-0.5,0.7-0.4
		c0.3,0.1,0.5,0.4,0.4,0.7c-0.1,0.3-2.6,7.9-12,11.3C137.2,70.9,137.1,70.9,137,70.9z"/>
</g>
<g>
	<path d="M138.8,74c-0.3,0-0.5-0.2-0.5-0.4c-0.1-0.3,0.1-0.6,0.4-0.7c6-1.4,11.4-9.6,11.5-9.7c0.2-0.3,0.5-0.3,0.8-0.2
		c0.3,0.2,0.3,0.5,0.2,0.8c-0.2,0.4-5.8,8.7-12.2,10.2C138.9,74,138.9,74,138.8,74z"/>
</g>
<g>
	<path d="M139.7,77.3c-0.2,0-0.5-0.2-0.5-0.4c-0.1-0.3,0.1-0.6,0.4-0.7c7.1-1.7,13.5-8.1,13.5-8.2c0.2-0.2,0.6-0.2,0.8,0
		c0.2,0.2,0.2,0.6,0,0.8c-0.3,0.3-6.7,6.6-14,8.5C139.8,77.3,139.7,77.3,139.7,77.3z"/>
</g>
<g>
	<path d="M140.9,80.2c-0.2,0-0.4-0.1-0.5-0.4c-0.1-0.3,0.1-0.6,0.3-0.7c6.1-2,14.7-6.9,14.8-7c0.3-0.2,0.6-0.1,0.8,0.2
		c0.2,0.3,0.1,0.6-0.2,0.8c-0.1,0-8.8,5-15,7C141.1,80.2,141,80.2,140.9,80.2z"/>
</g>
<g>
	<path d="M145.4,93.3c-0.2,0-0.4-0.1-0.5-0.4c-0.1-0.3,0.1-0.6,0.3-0.7c6.2-2.1,15.4-3.1,15.5-3.1c0.3,0,0.6,0.2,0.6,0.5
		c0,0.3-0.2,0.6-0.5,0.6c-0.1,0-9.2,1-15.3,3C145.5,93.3,145.5,93.3,145.4,93.3z"/>
</g>
<g>
	<path d="M145.8,97.7c-0.2,0-0.4-0.1-0.5-0.4c-0.1-0.3,0.1-0.6,0.3-0.7c6.2-2.1,14.9-1.6,15.2-1.5c0.3,0,0.5,0.3,0.5,0.6
		c0,0.3-0.2,0.6-0.6,0.5c-0.1,0-8.8-0.5-14.8,1.5C145.9,97.7,145.8,97.7,145.8,97.7z"/>
</g>
<g>
	<path d="M160.8,102.7c-0.1,0-0.1,0-0.2,0c-0.1,0-8.9-2.8-14.9-0.8c-0.3,0.1-0.6-0.1-0.7-0.3c-0.1-0.3,0.1-0.6,0.3-0.7
		c6.3-2.1,15.2,0.7,15.6,0.8c0.3,0.1,0.5,0.4,0.4,0.7C161.3,102.5,161,102.7,160.8,102.7z"/>
</g>
<g>
	<path fill="none" stroke="#000000" stroke-width="0.5" stroke-linecap="round" stroke-miterlimit="10" d="M159.8,107.5"/>
</g>
<g>
	<path d="M142.3,82.9c-0.2,0-0.4-0.1-0.5-0.4c-0.1-0.3,0-0.6,0.3-0.7c1.8-0.7,13.5-5.3,13.5-5.3l0.4,1c0,0-11.7,4.7-13.5,5.4
		C142.5,82.9,142.4,82.9,142.3,82.9z"/>
</g>
<g>
	<path d="M145.4,89.4c-0.2,0-0.4-0.1-0.5-0.4c-0.1-0.3,0-0.6,0.3-0.7c1.8-0.7,13.1-3.6,13.5-3.7c0.3-0.1,0.6,0.1,0.7,0.4
		c0.1,0.3-0.1,0.6-0.4,0.7c-0.1,0-11.7,3-13.4,3.7C145.6,89.4,145.5,89.4,145.4,89.4z"/>
</g>
<g>
	<path d="M142,86.3c-0.2,0-0.5-0.1-0.5-0.4c-0.1-0.3,0.1-0.6,0.4-0.7l34.9-11.5c0.3-0.1,0.6,0.1,0.7,0.4c0.1,0.3-0.1,0.6-0.4,0.7
		l-34.9,11.5C142.1,86.3,142,86.3,142,86.3z"/>
</g>
<g>
	<path d="M159.9,108.3c-0.1,0-0.3,0-0.4-0.1c-0.2-0.2-6.1-5.5-14.9-2c-0.3,0.1-0.6,0-0.7-0.3c-0.1-0.3,0-0.6,0.3-0.7
		c9.4-3.7,16,2.2,16,2.2c0.2,0.2,0.2,0.6,0,0.8C160.2,108.2,160.1,108.3,159.9,108.3z"/>
</g>
<g>
	<path d="M159.8,113.8c-0.1,0-0.2,0-0.3-0.1c-0.1-0.1-10.5-6.3-14.6-2.9c-0.2,0.2-0.6,0.2-0.8-0.1c-0.2-0.2-0.2-0.6,0.1-0.8
		c4.7-4,15.5,2.5,15.9,2.8c0.3,0.2,0.3,0.5,0.2,0.8C160.1,113.7,160,113.8,159.8,113.8z"/>
</g>
<g>
	<path d="M153,126.9c0,0-0.1,0-0.1,0c-9.7-1.9-12.8-4.2-13.7-5.8c-0.5-0.9-0.3-1.5-0.3-1.6c0.1-0.3,0.4-0.4,0.7-0.3
		c0.3,0.1,0.4,0.4,0.4,0.7c0,0,0,0.3,0.3,0.8c0.7,1.1,3.4,3.3,12.9,5.1c0.3,0.1,0.5,0.4,0.4,0.7C153.5,126.7,153.3,126.9,153,126.9z
		"/>
</g>
<g>
	<path fill="none" stroke="#000000" stroke-width="0.5" stroke-linecap="round" stroke-miterlimit="10" d="M137.7,122.9"/>
</g>
<g>
	<path d="M151.6,131.1c-0.8,0-8.5-0.2-14.4-7.8c-0.2-0.2-0.1-0.6,0.1-0.8c0.2-0.2,0.6-0.1,0.8,0.1c5.7,7.4,13.5,7.4,13.5,7.4
		c0,0,0,0,0,0c0.3,0,0.6,0.2,0.6,0.5C152.2,130.8,152,131.1,151.6,131.1C151.7,131.1,151.6,131.1,151.6,131.1z"/>
</g>
<g>
	<path d="M148.5,134.2c0,0-0.1,0-0.1,0c-0.4-0.1-10-2.8-13.5-8.4c-0.2-0.3-0.1-0.6,0.2-0.8c0.3-0.2,0.6-0.1,0.8,0.2
		c3.2,5.2,12.7,7.8,12.8,7.9c0.3,0.1,0.5,0.4,0.4,0.7C148.9,134.1,148.7,134.2,148.5,134.2z"/>
</g>
<g>
	<path d="M144.6,138.5c-0.1,0-0.2,0-0.3-0.1c-0.3-0.2-8.4-4.3-12.4-10.7c-0.2-0.3-0.1-0.6,0.2-0.8c0.3-0.2,0.6-0.1,0.8,0.2
		c3.9,6.2,11.9,10.3,12,10.3c0.3,0.1,0.4,0.5,0.2,0.7C145,138.3,144.8,138.5,144.6,138.5z"/>
</g>
<g>
	<path d="M141.4,142c-0.1,0-0.3,0-0.4-0.1c-0.1-0.1-7.5-6.8-11.4-12c-0.2-0.2-0.1-0.6,0.1-0.8s0.6-0.1,0.8,0.1
		c3.8,5.1,11.2,11.8,11.2,11.9c0.2,0.2,0.2,0.6,0,0.8C141.7,141.9,141.6,142,141.4,142z"/>
</g>
<g>
	<path d="M126.7,152.1c-0.2,0-0.4-0.1-0.5-0.3c0-0.1-3.8-8.4-7.6-13.6c-0.2-0.2-0.1-0.6,0.1-0.8c0.2-0.2,0.6-0.1,0.8,0.1
		c3.9,5.2,7.7,13.7,7.8,13.8c0.1,0.3,0,0.6-0.3,0.7C126.9,152,126.8,152.1,126.7,152.1z"/>
</g>
<g>
	<path d="M122.3,155.5c-0.2,0-0.5-0.2-0.5-0.4c0-0.1-2.2-8.5-6-13.6c-0.2-0.2-0.1-0.6,0.1-0.8c0.2-0.2,0.6-0.1,0.8,0.1
		c3.9,5.2,6.1,13.6,6.2,14c0.1,0.3-0.1,0.6-0.4,0.7C122.4,155.5,122.4,155.5,122.3,155.5z"/>
</g>
<g>
	<path d="M117.4,158.1c-0.3,0-0.6-0.2-0.6-0.6c0-0.1-0.1-9.4-3.9-14.4c-0.2-0.2-0.1-0.6,0.1-0.8c0.2-0.2,0.6-0.1,0.8,0.1
		c4,5.3,4.1,14.6,4.1,15C117.9,157.8,117.7,158.1,117.4,158.1C117.4,158.1,117.4,158.1,117.4,158.1z"/>
</g>
<g>
	<path fill="none" stroke="#000000" stroke-width="0.5" stroke-linecap="round" stroke-miterlimit="10" d="M109.5,156.1"/>
</g>
<g>
	<path d="M136.8,143.2c0,0-8.1-9.6-9.3-11.1c-0.2-0.2-0.2-0.6,0.1-0.8c0.2-0.2,0.6-0.2,0.8,0.1c1.2,1.5,9.3,11.1,9.3,11.1
		L136.8,143.2z"/>
</g>
<g>
	<path d="M130.4,148.8c-0.2,0-0.4-0.1-0.5-0.3c-0.1-0.1-6.5-10.1-7.7-11.6c-0.2-0.2-0.2-0.6,0.1-0.8c0.2-0.2,0.6-0.2,0.8,0.1
		c1.2,1.5,7.5,11.3,7.7,11.7c0.2,0.3,0.1,0.6-0.2,0.8C130.6,148.8,130.5,148.8,130.4,148.8z"/>
</g>
<g>
	<path d="M146.5,162.5c-0.2,0-0.3-0.1-0.4-0.2l-21.8-29.5c-0.2-0.2-0.1-0.6,0.1-0.8c0.2-0.2,0.6-0.1,0.8,0.1l21.8,29.5
		c0.2,0.2,0.1,0.6-0.1,0.8C146.7,162.4,146.6,162.5,146.5,162.5z"/>
</g>
<g>
	<path d="M112.3,160.6c-0.1,0-0.2,0-0.2-0.1c-0.3-0.1-0.4-0.5-0.3-0.7c0.1-0.3,3.3-7.5-2.7-14.7c-0.2-0.2-0.2-0.6,0.1-0.8
		c0.2-0.2,0.6-0.2,0.8,0.1c6.5,7.8,2.9,15.8,2.9,15.9C112.7,160.4,112.5,160.6,112.3,160.6z"/>
</g>
<g>
	<path d="M107,161.6c0,0-0.1,0-0.1,0c-0.3-0.1-0.5-0.4-0.4-0.7c0-0.1,2.7-12-1.8-14.8c-0.3-0.2-0.3-0.5-0.2-0.8
		c0.2-0.3,0.5-0.3,0.8-0.2c5.2,3.2,2.5,15.5,2.3,16C107.4,161.4,107.2,161.6,107,161.6z"/>
</g>
<g>
	<line fill="#FFFFFF" x1="99.7" y1="24.4" x2="99.7" y2="61.6"/>
	<path d="M99.7,62.2c-0.3,0-0.6-0.2-0.6-0.6V24.4c0-0.3,0.2-0.6,0.6-0.6s0.6,0.2,0.6,0.6v37.2C100.2,61.9,100,62.2,99.7,62.2z"/>
</g>
<g>
	<path d="M95.7,57.8C95.7,57.8,95.7,57.8,95.7,57.8c-0.3,0-0.6-0.3-0.6-0.6c0.1-3.6-0.8-13.6-0.8-13.7c0-0.3,0.2-0.6,0.5-0.6
		c0.3,0,0.6,0.2,0.6,0.5c0,0.4,0.9,10.2,0.8,13.9C96.2,57.6,96,57.8,95.7,57.8z"/>
</g>
<g>
	<path d="M91.8,58.5c-0.3,0-0.6-0.2-0.6-0.6c-0.1-11-2.2-15.5-2.2-15.6c-0.1-0.3,0-0.6,0.3-0.7c0.3-0.1,0.6,0,0.7,0.3
		c0.1,0.2,2.2,4.8,2.3,16C92.4,58.3,92.1,58.5,91.8,58.5C91.8,58.5,91.8,58.5,91.8,58.5z"/>
</g>
<g>
	<path d="M87.4,59c-0.3,0-0.6-0.2-0.6-0.6c-0.1-10.9-3.6-14.8-3.6-14.8c-0.2-0.2-0.2-0.6,0-0.8c0.2-0.2,0.6-0.2,0.8,0
		c0.2,0.2,3.8,4.2,3.9,15.6C88,58.7,87.7,59,87.4,59C87.4,59,87.4,59,87.4,59z"/>
</g>
<g>
	<path d="M82.9,59.2c-0.3,0-0.5-0.2-0.6-0.5C81.9,48.2,77,44.9,77,44.8c-0.3-0.2-0.3-0.5-0.2-0.8c0.2-0.3,0.5-0.3,0.8-0.2
		c0.2,0.1,5.4,3.6,5.9,14.7C83.5,58.9,83.2,59.2,82.9,59.2C82.9,59.2,82.9,59.2,82.9,59.2z"/>
</g>
<g>
	<path d="M78.8,59.7c-0.3,0-0.6-0.2-0.6-0.6c-0.1-10.7-6.3-13.7-6.6-13.8c-0.3-0.1-0.4-0.5-0.3-0.7c0.1-0.3,0.5-0.4,0.7-0.3
		c0.3,0.1,7.1,3.3,7.2,14.8C79.4,59.5,79.1,59.7,78.8,59.7C78.8,59.7,78.8,59.7,78.8,59.7z"/>
</g>
<g>
	<path d="M74,60.5c-0.3,0-0.5-0.2-0.6-0.5c-0.8-9.2-7.1-13-7.2-13.1c-0.3-0.2-0.4-0.5-0.2-0.8c0.2-0.3,0.5-0.3,0.8-0.2
		c0.3,0.2,6.9,4.1,7.7,13.9C74.6,60.2,74.4,60.5,74,60.5C74,60.5,74,60.5,74,60.5z"/>
</g>
<g>
	<path d="M64.1,68.5c-0.2,0-0.4,0-0.6-0.1c-1.8-0.4-5-2.6-9.8-11.2c-0.2-0.3-0.1-0.6,0.2-0.8c0.3-0.2,0.6-0.1,0.8,0.2
		c4.8,8.5,7.6,10.3,8.9,10.7c0.6,0.2,0.8,0,0.8,0c0.2-0.2,0.6-0.1,0.8,0.1c0.2,0.2,0.1,0.6-0.1,0.8C65,68.2,64.7,68.5,64.1,68.5z"/>
</g>
<g>
	<path fill="none" stroke="#000000" stroke-width="0.5" stroke-linecap="round" stroke-miterlimit="10" d="M62.3,70.4"/>
</g>
<g>
	<path d="M62.3,70.9c-0.1,0-0.1,0-0.2,0c-9.4-3.3-11.9-10.9-12-11.3c-0.1-0.3,0.1-0.6,0.4-0.7c0.3-0.1,0.6,0.1,0.7,0.4
		c0,0.1,2.4,7.4,11.3,10.6c0.3,0.1,0.4,0.4,0.3,0.7C62.7,70.8,62.5,70.9,62.3,70.9z"/>
</g>
<g>
	<path d="M60.5,74c0,0-0.1,0-0.1,0c-6.4-1.5-11.9-9.8-12.2-10.2c-0.2-0.3-0.1-0.6,0.2-0.8c0.3-0.2,0.6-0.1,0.8,0.2
		c0.1,0.1,5.5,8.3,11.5,9.7c0.3,0.1,0.5,0.4,0.4,0.7C60.9,73.8,60.7,74,60.5,74z"/>
</g>
<g>
	<path d="M59.6,77.3c0,0-0.1,0-0.1,0c-7.4-1.8-13.8-8.2-14-8.5c-0.2-0.2-0.2-0.6,0-0.8c0.2-0.2,0.6-0.2,0.8,0
		c0.1,0.1,6.5,6.4,13.5,8.2c0.3,0.1,0.5,0.4,0.4,0.7C60.1,77.2,59.9,77.3,59.6,77.3z"/>
</g>
<g>
	<path d="M58.4,80.2c-0.1,0-0.1,0-0.2,0c-6.2-2.1-14.9-7-15-7c-0.3-0.2-0.4-0.5-0.2-0.8c0.2-0.3,0.5-0.4,0.8-0.2
		c0.1,0,8.7,4.9,14.8,7c0.3,0.1,0.4,0.4,0.3,0.7C58.8,80,58.6,80.2,58.4,80.2z"/>
</g>
<g>
	<path d="M53.9,93.3c-0.1,0-0.1,0-0.2,0c-6.1-2-15.2-3-15.3-3c-0.3,0-0.5-0.3-0.5-0.6c0-0.3,0.3-0.5,0.6-0.5c0.1,0,9.3,1,15.5,3.1
		c0.3,0.1,0.4,0.4,0.3,0.7C54.3,93.1,54.1,93.3,53.9,93.3z"/>
</g>
<g>
	<path d="M53.5,97.7c-0.1,0-0.1,0-0.2,0c-6-2-14.7-1.5-14.8-1.5c-0.3,0-0.6-0.2-0.6-0.5c0-0.3,0.2-0.6,0.5-0.6c0.4,0,9-0.5,15.2,1.5
		c0.3,0.1,0.4,0.4,0.3,0.7C54,97.6,53.8,97.7,53.5,97.7z"/>
</g>
<g>
	<path d="M38.5,102.7c-0.2,0-0.5-0.1-0.5-0.4c-0.1-0.3,0.1-0.6,0.4-0.7c0.4-0.1,9.3-2.9,15.6-0.8c0.3,0.1,0.4,0.4,0.3,0.7
		c-0.1,0.3-0.4,0.4-0.7,0.3c-5.9-2-14.8,0.8-14.9,0.8C38.6,102.7,38.6,102.7,38.5,102.7z"/>
</g>
<g>
	<path fill="none" stroke="#000000" stroke-width="0.5" stroke-linecap="round" stroke-miterlimit="10" d="M39.5,107.5"/>
</g>
<g>
	<path d="M57,82.9c-0.1,0-0.1,0-0.2,0c-1.8-0.7-13.5-5.4-13.5-5.4l0.4-1c0,0,11.7,4.7,13.5,5.3c0.3,0.1,0.4,0.4,0.3,0.7
		C57.4,82.8,57.2,82.9,57,82.9z"/>
</g>
<g>
	<path d="M53.9,89.4c-0.1,0-0.1,0-0.2,0c-1.8-0.7-13.3-3.6-13.4-3.7c-0.3-0.1-0.5-0.4-0.4-0.7c0.1-0.3,0.4-0.5,0.7-0.4
		c0.5,0.1,11.7,3,13.5,3.7c0.3,0.1,0.4,0.4,0.3,0.7C54.3,89.3,54.1,89.4,53.9,89.4z"/>
</g>
<g>
	<path d="M57.3,86.3c-0.1,0-0.1,0-0.2,0L22.3,74.7c-0.3-0.1-0.5-0.4-0.4-0.7c0.1-0.3,0.4-0.5,0.7-0.4l34.9,11.5
		c0.3,0.1,0.5,0.4,0.4,0.7C57.8,86.1,57.6,86.3,57.3,86.3z"/>
</g>
<g>
	<path d="M39.4,108.3c-0.1,0-0.3-0.1-0.4-0.2c-0.2-0.2-0.2-0.6,0-0.8c0.1-0.1,6.6-6,16-2.2c0.3,0.1,0.4,0.4,0.3,0.7
		c-0.1,0.3-0.4,0.4-0.7,0.3c-8.8-3.5-14.8,2-14.9,2C39.6,108.2,39.5,108.3,39.4,108.3z"/>
</g>
<g>
	<path d="M39.5,113.8c-0.2,0-0.4-0.1-0.5-0.3c-0.2-0.3-0.1-0.6,0.2-0.8c0.5-0.3,11.2-6.7,15.9-2.8c0.2,0.2,0.3,0.5,0.1,0.8
		c-0.2,0.2-0.6,0.3-0.8,0.1c-4.1-3.5-14.5,2.8-14.6,2.9C39.7,113.8,39.6,113.8,39.5,113.8z"/>
</g>
<g>
	<path d="M46.3,126.9c-0.3,0-0.5-0.2-0.5-0.4c-0.1-0.3,0.1-0.6,0.4-0.7c9.5-1.9,12.2-4,12.9-5.1c0.3-0.5,0.3-0.8,0.3-0.8
		c-0.1-0.3,0.1-0.6,0.4-0.7c0.3-0.1,0.6,0.1,0.7,0.4c0,0.1,0.2,0.7-0.3,1.6c-0.9,1.6-4,3.9-13.7,5.8
		C46.4,126.9,46.4,126.9,46.3,126.9z"/>
</g>
<g>
	<path fill="none" stroke="#000000" stroke-width="0.5" stroke-linecap="round" stroke-miterlimit="10" d="M61.6,122.9"/>
</g>
<g>
	<path d="M47.7,131.1C47.7,131.1,47.7,131.1,47.7,131.1c-0.4,0-0.6-0.3-0.6-0.6c0-0.3,0.3-0.5,0.6-0.5c0,0,0,0,0,0
		c0.3,0,7.9-0.1,13.5-7.4c0.2-0.2,0.5-0.3,0.8-0.1c0.2,0.2,0.3,0.5,0.1,0.8C56.2,130.9,48.5,131.1,47.7,131.1z"/>
</g>
<g>
	<path d="M50.9,134.2c-0.2,0-0.5-0.2-0.5-0.4c-0.1-0.3,0.1-0.6,0.4-0.7c0.1,0,9.6-2.6,12.8-7.9c0.2-0.3,0.5-0.3,0.8-0.2
		c0.3,0.2,0.3,0.5,0.2,0.8c-3.4,5.6-13.1,8.3-13.5,8.4C50.9,134.2,50.9,134.2,50.9,134.2z"/>
</g>
<g>
	<path d="M54.7,138.5c-0.2,0-0.4-0.1-0.5-0.3c-0.1-0.3,0-0.6,0.2-0.7c0.1,0,8.1-4.1,12-10.3c0.2-0.3,0.5-0.3,0.8-0.2
		c0.3,0.2,0.3,0.5,0.2,0.8c-4,6.4-12.1,10.5-12.4,10.7C54.9,138.4,54.8,138.5,54.7,138.5z"/>
</g>
<g>
	<path d="M57.9,142c-0.2,0-0.3-0.1-0.4-0.2c-0.2-0.2-0.2-0.6,0-0.8c0.1-0.1,7.4-6.7,11.2-11.9c0.2-0.2,0.5-0.3,0.8-0.1
		c0.2,0.2,0.3,0.5,0.1,0.8c-3.9,5.2-11.3,11.9-11.4,12C58.2,141.9,58,142,57.9,142z"/>
</g>
<g>
	<path d="M72.6,152.1c-0.1,0-0.2,0-0.2,0c-0.3-0.1-0.4-0.5-0.3-0.7c0-0.1,3.9-8.6,7.8-13.8c0.2-0.2,0.5-0.3,0.8-0.1
		c0.2,0.2,0.3,0.5,0.1,0.8c-3.8,5.1-7.6,13.5-7.6,13.6C73,151.9,72.8,152.1,72.6,152.1z"/>
</g>
<g>
	<path d="M77,155.5c0,0-0.1,0-0.1,0c-0.3-0.1-0.5-0.4-0.4-0.7c0.1-0.4,2.3-8.7,6.2-14c0.2-0.2,0.5-0.3,0.8-0.1
		c0.2,0.2,0.3,0.5,0.1,0.8c-3.8,5.1-6,13.5-6,13.6C77.5,155.3,77.2,155.5,77,155.5z"/>
</g>
<g>
	<path d="M82,158.1c-0.3,0-0.6-0.3-0.6-0.6c0-0.4,0.1-9.7,4.1-15c0.2-0.2,0.5-0.3,0.8-0.1c0.2,0.2,0.3,0.5,0.1,0.8
		c-3.8,5-3.9,14.3-3.9,14.4C82.5,157.8,82.3,158.1,82,158.1z"/>
</g>
<g>
	<path fill="none" stroke="#000000" stroke-width="0.5" stroke-linecap="round" stroke-miterlimit="10" d="M89.9,156.1"/>
</g>
<g>
	<path d="M62.5,143.2l-0.9-0.7c0,0,8.1-9.6,9.3-11.1c0.2-0.2,0.5-0.3,0.8-0.1c0.2,0.2,0.3,0.5,0.1,0.8
		C70.6,133.5,62.5,143.2,62.5,143.2z"/>
</g>
<g>
	<path d="M68.9,148.8c-0.1,0-0.2,0-0.3-0.1c-0.3-0.2-0.3-0.5-0.2-0.8c0.3-0.4,6.5-10.2,7.7-11.7c0.2-0.2,0.5-0.3,0.8-0.1
		c0.2,0.2,0.3,0.5,0.1,0.8c-1.2,1.5-7.6,11.5-7.7,11.6C69.2,148.7,69.1,148.8,68.9,148.8z"/>
</g>
<g>
	<path d="M52.9,162.5c-0.1,0-0.2,0-0.3-0.1c-0.2-0.2-0.3-0.5-0.1-0.8L74.2,132c0.2-0.2,0.5-0.3,0.8-0.1c0.2,0.2,0.3,0.5,0.1,0.8
		l-21.8,29.5C53.2,162.4,53,162.5,52.9,162.5z"/>
</g>
<g>
	<path d="M87,160.6c-0.2,0-0.4-0.1-0.5-0.3c0-0.1-3.6-8.1,2.9-15.9c0.2-0.2,0.5-0.3,0.8-0.1c0.2,0.2,0.3,0.5,0.1,0.8
		c-6,7.3-2.9,14.4-2.7,14.7c0.1,0.3,0,0.6-0.3,0.7C87.2,160.5,87.1,160.6,87,160.6z"/>
</g>
<g>
	<path d="M92.4,161.6c-0.3,0-0.5-0.2-0.5-0.4c-0.1-0.5-2.9-12.7,2.3-16c0.3-0.2,0.6-0.1,0.8,0.2c0.2,0.3,0.1,0.6-0.2,0.8
		c-4.6,2.8-1.9,14.7-1.8,14.8c0.1,0.3-0.1,0.6-0.4,0.7C92.4,161.6,92.4,161.6,92.4,161.6z"/>
</g>
<g>
	<path fill="#DA2C39" d="M138.8,90.1c0-8.4-1.2-10.5-2.9-13.8c-2.2-4.5-10.1-14.2-20.3-14.2c-8.4,0-15,6.7-15.9,7.6
		c-0.9-0.9-7.5-7.6-15.9-7.6c-10.2,0-18.1,9.7-20.3,14.2c-1.6,3.3-2.9,5.4-2.9,13.8c0,7.8,3.4,33,39,52.6v0.1c0,0,0.1,0,0.1-0.1
		c0,0,0.1,0,0.1,0.1v-0.1C135.4,123.1,138.8,97.9,138.8,90.1z"/>
	<g>
		<path d="M99.2,143.7l-0.1-0.6c-36.2-20-39-45.5-39-52.9c0-8.2,1.2-10.6,2.7-13.6l0.2-0.4c1.9-3.8,9.7-14.5,20.8-14.5
			c7.8,0,14.1,5.7,15.9,7.4c1.7-1.7,8.1-7.4,15.9-7.4c11.1,0,19,10.7,20.8,14.5l0.2,0.4c1.5,3,2.7,5.4,2.7,13.6
			c0,7.4-2.8,32.9-39,52.9v0.6l-0.6-0.2L99.2,143.7z M83.9,62.7c-9.8,0-17.6,9.3-19.8,13.9L63.8,77c-1.5,3-2.6,5.2-2.6,13.1
			c0,7.2,2.8,32.3,38.5,52c35.8-19.7,38.5-44.8,38.5-52c0-7.9-1.1-10.1-2.6-13.1l-0.2-0.4c-2.3-4.5-10.1-13.9-19.8-13.9
			c-8.2,0-14.8,6.7-15.5,7.4l-0.4,0.4l-0.4-0.4C98.6,69.4,92,62.7,83.9,62.7z"/>
	</g>
</g>
<polygon points="105.9,86.8 105.9,74.2 99.9,74.2 99.7,74.2 93.7,74.2 93.7,86.8 81.1,86.8 81.1,99.4 93.7,99.4 93.7,132.8 
	99.7,132.8 99.9,132.8 105.9,132.8 105.9,99.4 118.5,99.4 118.5,86.8 "/>
</svg>
