<svg xmlns="http://www.w3.org/2000/svg" xmlns:xl="http://www.w3.org/1999/xlink" xmlns:dc="http://purl.org/dc/elements/1.1/" version="1.1" viewBox="0 0 100 125" x="0px" y="0px"><metadata> Produced by OmniGraffle 6.0.4 </metadata><g stroke="none" stroke-opacity="1" stroke-dasharray="none" fill="none" fill-opacity="1"><title>Canvas 1</title><g><title>Layer 1</title><path d="M 83.599996 41.599978 L 83.599996 41.599978 C 83.600044 23.043168 68.55683 7.9999525 50.00002 8 C 31.44321 7.9999525 16.399956 23.043168 16.400004 41.599978 C 16.399956 60.156787 50.00002 92 50.00002 92 C 50.00002 92 83.600044 60.156787 83.599996 41.599978 Z M 65.391918 42.393037 L 65.391918 42.393037 C 65.39194 50.893775 50.000016 65.480916 50.000016 65.480916 C 50.000016 65.480916 34.608075 50.893775 34.608097 42.393037 C 34.608075 33.8923 41.499278 27.001114 50.000016 27.001135 C 58.500753 27.001114 65.39194 33.8923 65.391918 42.393037 Z" fill="black"/></g></g><text x="0" y="115" fill="#000000" font-size="5px" font-weight="bold" font-family="'Helvetica Neue', Helvetica, Arial-Unicode, Arial, Sans-serif">Created by PJ Souders</text><text x="0" y="120" fill="#000000" font-size="5px" font-weight="bold" font-family="'Helvetica Neue', Helvetica, Arial-Unicode, Arial, Sans-serif">from the Noun Project</text></svg>