<?xml version="1.0" encoding="utf-8"?>
<!-- Generator: Adobe Illustrator 18.1.1, SVG Export Plug-In . SVG Version: 6.00 Build 0)  -->
<svg version="1.1" id="Layer_1" xmlns="http://www.w3.org/2000/svg" xmlns:xlink="http://www.w3.org/1999/xlink" x="0px" y="0px"
	 viewBox="0 0 80 80" enable-background="new 0 0 80 80" xml:space="preserve">
<path fill="#010101" d="M75.7,40C75.7,40,75.7,40,75.7,40L75.7,40c0-2.8-1.5-5.4-3.9-6.7L16,1c-1-0.6-2.7-1.1-4-1
	c-0.2,0-0.5,0-0.7,0c-5.4,0.5-7.4,7.4-3.4,11l31.4,28.5c0.1,0.1,0.2,0.3,0.2,0.5c0,0.2-0.1,0.4-0.2,0.5L7.9,69c-4,3.6-2,10.5,3.4,11
	c0.2,0,0.5,0,0.7,0c1.3,0.1,3-0.4,4-1l55.9-32.3C74.2,45.4,75.7,42.8,75.7,40L75.7,40C75.7,40.1,75.7,40.1,75.7,40
	C75.7,40.1,75.7,40,75.7,40C75.7,40,75.7,40,75.7,40z"/>
</svg>
