<?xml version="1.0" encoding="utf-8"?>
<!-- Generator: Adobe Illustrator 18.1.1, SVG Export Plug-In . SVG Version: 6.00 Build 0)  -->
<svg version="1.1" id="Layer_1" xmlns="http://www.w3.org/2000/svg" xmlns:xlink="http://www.w3.org/1999/xlink" x="0px" y="0px"
	 viewBox="0 0 80 80" enable-background="new 0 0 80 80" xml:space="preserve">
<path fill="#010101" d="M73.1,14.7c-1.5,0.1-3,0.6-4.1,1.6L40.4,39.8c-0.1,0.1-0.2,0.1-0.4,0.1c-0.2,0-0.3-0.1-0.4-0.1L11,16.2
	c-1.1-0.9-2.6-1.5-4.1-1.6c-4.6-0.4-7.6,4.8-5,8.6c0.5,0.8,1.1,1.5,1.3,1.7l30.2,39c1.3,1.8,3.9,2.9,6.7,2.9s5.4-1.1,6.7-2.9
	l30.2-39c0.2-0.3,0.7-0.9,1.3-1.7C80.7,19.5,77.7,14.3,73.1,14.7z"/>
</svg>
