<?xml version="1.0" encoding="utf-8"?>
<!-- Generator: Adobe Illustrator 18.1.1, SVG Export Plug-In . SVG Version: 6.00 Build 0)  -->
<svg version="1.1" id="Layer_1" xmlns="http://www.w3.org/2000/svg" xmlns:xlink="http://www.w3.org/1999/xlink" x="0px" y="0px"
	 viewBox="0 0 80 80" enable-background="new 0 0 80 80" xml:space="preserve">
<path fill="#010101" d="M73.8,58.7c-0.3-0.3-0.6-0.6-0.9-1l-1.8-1.8c-7-7-9.8-9.8-10.1-10c-0.3-0.3-0.6-0.6-1-0.9
	c-3.5-3.3-5.9-0.7-9,4.1c-0.3,0.4-0.6,0.9-0.8,1.2c0,0,0,0,0,0c-0.1,0.1-0.2,0.3-0.3,0.4c-3.5,5.5-3.2,5.7-4.5,5.4
	c-0.1,0-0.1,0-0.1,0c-4-1.3-3.6-1.5-11.4-9.5c-7.9-7.9-8.2-7.4-9.4-11.4c0-0.1,0-0.1,0-0.1c-0.3-1.2-0.2-0.9,5.3-4.5v0
	c0.1-0.1,0.3-0.2,0.4-0.3c0,0,0,0,0,0c0.4-0.3,0.8-0.5,1.2-0.8c4.7-3.2,7.3-5.6,4.1-9.1c-0.3-0.3-0.6-0.6-0.9-1
	c-0.2-0.3-3-3.1-10-10.2l-1.8-1.8c-0.3-0.3-0.6-0.6-1-0.9c-3.9-3.7-7.4-1-11.1,4.8C7.2,17,6,20.5,6,20.5c-1.7,5.3,1.5,11.7,2.8,13.9
	c4.6,7.7,6.3,11,16.4,21C35.1,65.6,38.4,67.4,46,72c2.2,1.3,8.6,4.5,13.9,2.8c0,0,3.5-1.2,9.2-4.9C74.9,66.1,77.5,62.6,73.8,58.7z"
	/>
</svg>
