<?xml version="1.0" encoding="utf-8"?>
<!-- Generator: Adobe Illustrator 18.1.1, SVG Export Plug-In . SVG Version: 6.00 Build 0)  -->
<svg version="1.1" id="Layer_1" xmlns="http://www.w3.org/2000/svg" xmlns:xlink="http://www.w3.org/1999/xlink" x="0px" y="0px"
	 viewBox="0 0 80 80" enable-background="new 0 0 80 80" xml:space="preserve">
<g>
	<path d="M71.4,53.8L57.6,40l13.8-13.8c4.8-4.8,4.8-12.7,0-17.6C69,6.3,65.9,5,62.6,5c-3.3,0-6.5,1.3-8.8,3.6L40,22.4L26.2,8.6
		C23.9,6.3,20.8,5,17.4,5C14.1,5,11,6.3,8.7,8.6C6.3,11,5,14.1,5,17.5c0,3.3,1.3,6.5,3.6,8.8L22.4,40L8.6,53.8
		c-4.8,4.8-4.8,12.7,0,17.6c2.4,2.3,5.5,3.6,8.8,3.6c3.3,0,6.5-1.3,8.8-3.6L40,57.6l13.8,13.8c2.4,2.3,5.5,3.6,8.8,3.6
		c3.3,0,6.4-1.3,8.8-3.6c2.3-2.3,3.6-5.5,3.6-8.8C75,59.2,73.7,56.1,71.4,53.8z"/>
</g>
</svg>
