<?xml version="1.0" encoding="utf-8"?>
<!-- Generator: Adobe Illustrator 18.1.1, SVG Export Plug-In . SVG Version: 6.00 Build 0)  -->
<svg version="1.1" id="Layer_1" xmlns="http://www.w3.org/2000/svg" xmlns:xlink="http://www.w3.org/1999/xlink" x="0px" y="0px"
	 viewBox="0 0 80 80" enable-background="new 0 0 80 80" xml:space="preserve">
<g>
	<path fill="#010101" d="M35.2,35.3h9.6v9.6h-9.6V35.3z M49.6,42.4v4.8c0,1.3-1.1,2.4-2.4,2.4H32.8c-1.3,0-2.4-1.1-2.4-2.4v-4.8H1.8
		v26.3c0,5.3,4.3,9.6,9.6,9.6h57.4c5.3,0,9.6-4.3,9.6-9.6V42.4H49.6z M25.7,16.1v-4.8c0-2.6,2.1-4.8,4.8-4.8h19.1
		c2.6,0,4.8,2.1,4.8,4.8v4.8h4.8v-4.8c0-5.3-4.3-9.6-9.6-9.6H30.4c-5.3,0-9.6,4.3-9.6,9.6v4.8H25.7z M68.7,20.9h-9.6h-4.8H25.7h-4.8
		h-9.6c-5.3,0-9.6,4.3-9.6,9.6v7.2h28.7v-4.8c0-1.3,1.1-2.4,2.4-2.4h14.3c1.3,0,2.4,1.1,2.4,2.4v4.8h28.7v-7.2
		C78.3,25.2,74,20.9,68.7,20.9z"/>
</g>
</svg>
