<?xml version="1.0" encoding="utf-8"?>
<!-- Generator: Adobe Illustrator 18.1.1, SVG Export Plug-In . SVG Version: 6.00 Build 0)  -->
<svg version="1.1" id="Layer_1" xmlns="http://www.w3.org/2000/svg" xmlns:xlink="http://www.w3.org/1999/xlink" x="0px" y="0px"
	 viewBox="0 0 80 80" enable-background="new 0 0 80 80" xml:space="preserve">
<g>
	<path d="M67.6,5.1H12.3C7.5,5.1,5,7.2,5,12.3v55.4c0,4.8,2.5,7.3,7.3,7.3h8.9h15.1h12.3H61h6.6c5.2,0,7.4-2.4,7.4-7.3V12.3
		C75,7.2,72.8,5.1,67.6,5.1z M34.3,67.8h-9.4V39.4h9.4V67.8z M29.6,35.6L29.6,35.6c-3.2,0-5.3-2.2-5.3-4.9c0-2.8,2.1-4.9,5.3-4.9
		c3.2,0,5.2,2.1,5.3,4.9C35,33.4,32.9,35.6,29.6,35.6z M68.4,67.8h-9.4V52.6c0-3.8-1.4-6.4-4.8-6.4c-2.6,0-4.2,1.8-4.8,3.5
		C49.1,50.3,49,51.1,49,52v15.8h-9.4c0,0,0.1-25.7,0-28.4H49v4c1.3-1.9,3.5-4.7,8.5-4.7c6.2,0,10.9,4.1,10.9,12.8V67.8z"/>
	<path d="M49,43.5L49,43.5C49,43.5,49,43.5,49,43.5L49,43.5z"/>
</g>
</svg>
