<?xml version="1.0" encoding="utf-8"?>
<!-- Generator: Adobe Illustrator 18.1.1, SVG Export Plug-In . SVG Version: 6.00 Build 0)  -->
<svg version="1.1" id="Layer_1" xmlns="http://www.w3.org/2000/svg" xmlns:xlink="http://www.w3.org/1999/xlink" x="0px" y="0px"
	 viewBox="0 0 80 80" enable-background="new 0 0 80 80" xml:space="preserve">
<path fill="#010101" d="M40.5,5.7C27.7,5.7,17.3,16.1,17.3,29c0,0.3,0,0.6,0,0.8c0.1,2.4,0.5,4.8,1.3,7c5,16.3,21.9,37.5,21.9,37.5
	S57.4,53,62.4,36.8c0.8-2.2,1.2-4.5,1.3-7c0-0.3,0-0.6,0-0.8C63.7,16.1,53.3,5.7,40.5,5.7z M40.5,40.4c-6.3,0-11.4-5.1-11.4-11.4
	s5.1-11.4,11.4-11.4S51.9,22.7,51.9,29S46.8,40.4,40.5,40.4z"/>
</svg>
