<?xml version="1.0" encoding="utf-8"?>
<!-- Generator: Adobe Illustrator 18.1.1, SVG Export Plug-In . SVG Version: 6.00 Build 0)  -->
<svg version="1.1" id="Layer_1" xmlns="http://www.w3.org/2000/svg" xmlns:xlink="http://www.w3.org/1999/xlink" x="0px" y="0px"
	 viewBox="0 0 80 80" enable-background="new 0 0 80 80" xml:space="preserve">
<path fill="#010101" d="M30.2,35c0.2,0,0.3,0.1,0.4,0.2l0.1,0.1l6.9,4.6c1.3,0.9,3.7,0.9,5,0l32.7-21.8c0.3-0.2,0.4-0.3,0.5-0.4
	c-0.1,0-0.4-0.1-0.7-0.1h-70c-0.3,0-0.5,0-0.7,0.1c0.1,0.1,0.3,0.2,0.5,0.4L30.2,35z"/>
<path fill="#010101" d="M5,60l21.6-21.5L4.9,24c-0.6-0.4-0.9-0.7-1.1-1.1c-0.2,0.4-0.3,0.9-0.3,1.4v33.3c0,1.1,0.5,2,1.4,2.6
	C4.9,60.1,5,60,5,60z"/>
<path fill="#010101" d="M76.2,23.2c-0.2,0.3-0.5,0.6-1,1L54,38.3L75.7,60c0.5-0.6,0.8-1.3,0.8-2V24.5C76.5,24,76.4,23.6,76.2,23.2z"
	/>
<path fill="#010101" d="M49.5,40.6l-6.4,4.2c-0.8,0.5-1.9,0.8-3,0.8s-2.2-0.3-3-0.8L31.4,41L10,62.4c0.1,0,0.2,0,0.3,0H70
	c0.4,0,0.8-0.1,1.1-0.2L49.5,40.6z"/>
</svg>
