<?xml version="1.0" encoding="utf-8"?>
<!-- Generator: Adobe Illustrator 18.1.1, SVG Export Plug-In . SVG Version: 6.00 Build 0)  -->
<svg version="1.1" xmlns="http://www.w3.org/2000/svg" xmlns:xlink="http://www.w3.org/1999/xlink" x="0px" y="0px"
	 viewBox="0 0 80 80" enable-background="new 0 0 80 80" xml:space="preserve">
<g id="Layer_1">
	<path fill="#010101" d="M40,5C20.6,5,5,20.6,5,40c0,19.3,15.6,35,35,35s35-15.7,35-35C75,20.6,59.4,5,40,5z M33.8,52.4
		c0,2.9-2.3,5.1-5.1,5.1c-2.9,0-5.1-2.3-5.1-5.1L21.1,30c0-4.1,3.4-7.5,7.5-7.5c4.1,0,7.5,3.4,7.5,7.5L33.8,52.4z M56.4,52.4
		c0,2.9-2.3,5.1-5.1,5.1c-2.9,0-5.1-2.3-5.1-5.1L43.8,30c0-4.1,3.4-7.5,7.5-7.5c4.1,0,7.5,3.4,7.5,7.5L56.4,52.4z"/>
</g>
<g id="Layer_2">
</g>
</svg>
