<?xml version="1.0" encoding="utf-8"?>
<!-- Generator: Adobe Illustrator 18.1.1, SVG Export Plug-In . SVG Version: 6.00 Build 0)  -->
<svg version="1.1" id="Layer_1" xmlns="http://www.w3.org/2000/svg" xmlns:xlink="http://www.w3.org/1999/xlink" x="0px" y="0px"
	 viewBox="0 0 80 80" enable-background="new 0 0 80 80" xml:space="preserve">
<g>
	<path fill="#010101" d="M44.6,56.4c-0.2,0-0.7-0.1-1.3-0.1h-0.9v2.6h1c0.7,0,1.2,0,1.4-0.1s0.4-0.2,0.6-0.4
		c0.1-0.2,0.2-0.4,0.2-0.7s-0.1-0.6-0.3-0.8C45.2,56.6,44.9,56.5,44.6,56.4z"/>
	<path fill="#010101" d="M54,56.9c-0.2-0.2-0.5-0.4-0.8-0.4c-0.3-0.1-0.8-0.1-1.5-0.1h-0.8v6h1.4c0.5,0,0.9,0,1.1-0.1
		c0.3-0.1,0.5-0.2,0.7-0.4s0.4-0.5,0.5-0.9s0.2-1,0.2-1.7s-0.1-1.2-0.2-1.6C54.4,57.4,54.3,57.1,54,56.9z"/>
	<path fill="#010101" d="M66.9,50.4H37.1c-1.5,0-2.6,1.2-2.6,2.6v12.7c0,1.5,1.2,2.6,2.6,2.6h29.7c1.5,0,2.6-1.2,2.6-2.6V53
		C69.5,51.6,68.3,50.4,66.9,50.4z M47.2,59c-0.2,0.4-0.5,0.7-0.8,0.9s-0.6,0.4-0.9,0.4c-0.4,0.1-1.1,0.1-1.9,0.1h-1.2v3.4h-1.8v-9.1
		h2.9c1.1,0,1.8,0,2.2,0.1c0.5,0.1,1,0.4,1.3,0.9s0.5,1,0.5,1.8C47.5,58.2,47.4,58.6,47.2,59z M56.4,61.4c-0.2,0.7-0.6,1.2-1,1.6
		c-0.3,0.3-0.7,0.6-1.3,0.7c-0.4,0.1-0.9,0.2-1.6,0.2H49v-9.1h3.3c0.8,0,1.3,0.1,1.7,0.2c0.5,0.2,1,0.4,1.4,0.8
		c0.4,0.4,0.7,0.9,0.9,1.5s0.3,1.3,0.3,2.1C56.6,60.2,56.5,60.8,56.4,61.4z M63.9,56.4h-4.4v2.1h3.8V60h-3.8v3.9h-1.8v-9.1h6.2V56.4
		z"/>
</g>
<path fill="#010101" d="M60.2,56.4v2.1h3.1V60h-3.1v3.5v8h-0.1H15.4V8.9h33.1v10.8h11.7v35.1h3.6l-0.1-36.5c0-0.6-0.3-1.2-0.7-1.7
	L50.8,5.7c-0.5-0.4-1-0.6-1.6-0.6H14c-1.3,0-2.3,1-2.3,2.3v65.4c0,1.3,1,2.3,2.3,2.3h47.5c1.3,0,2.3-1,2.3-2.3l0-16.4H60.2z"/>
<path fill="#010101" d="M44.6,56.5c-0.2-0.1-0.6-0.1-1.3-0.1h-0.9v2.5h1c0.7,0,1.2,0,1.4-0.1c0.3-0.1,0.5-0.2,0.6-0.4
	c0.1-0.2,0.2-0.4,0.2-0.7s-0.1-0.6-0.3-0.8C45.1,56.7,44.9,56.6,44.6,56.5z"/>
<g>
	<path fill="#010101" d="M53.9,56.9c-0.2-0.2-0.5-0.3-0.8-0.4c-0.3-0.1-0.8-0.1-1.5-0.1h-0.8v6h1.4c0.5,0,0.9,0,1.1-0.1
		c0.3-0.1,0.6-0.2,0.6-0.3c0.2-0.2,0.4-0.5,0.5-0.9c0.1-0.4,0.2-1,0.2-1.7c0-0.7-0.1-1.2-0.2-1.6C54.3,57.4,54.1,57.1,53.9,56.9z"/>
	<path fill="#010101" d="M45.4,23.2V12.3h-27v56.6h38.7V23.2H45.4z M47.2,59.1c-0.2,0.4-0.5,0.7-0.8,0.9c-0.3,0.2-0.6,0.3-0.9,0.4
		c-0.4,0.1-1.1,0.1-1.9,0.1v0.1h-1.2V64h-1.8v-9.1h2.9c1.1,0,1.9,0,2.2,0.1c0.5,0.1,0.9,0.4,1.3,0.9c0.3,0.5,0.5,1.1,0.5,1.8
		C47.5,58.3,47.4,58.7,47.2,59.1z M47.4,34.4l-8.1,14c-0.3,0.6-1,1-1.7,1c-0.7,0-1.4-0.4-1.7-1l-8.1-14c-0.2-0.3-0.3-0.7-0.3-1
		c0,0,0-0.1,0-0.2c0.1-1.4,1.9-1.9,2.8-0.9l7.1,7.9h0.1h0.1l7.2-7.9c0.9-1,2.6-0.5,2.8,0.9c0.1,0.1,0.1,0.2,0.1,0.2
		C47.7,33.7,47.6,34.2,47.4,34.4z M56.4,61.4c-0.3,0.7-0.6,1.2-1,1.6c-0.3,0.3-0.8,0.5-1.4,0.8c-0.4,0.1-0.9,0.2-1.6,0.2H49v-9.1
		h3.4c0.7,0,1.3,0.1,1.7,0.2c0.6,0.1,1,0.4,1.4,0.8c0.4,0.4,0.7,0.9,0.9,1.5c0.2,0.5,0.3,1.3,0.3,2.1C56.7,60.2,56.6,60.9,56.4,61.4
		z"/>
</g>
</svg>
