<?xml version="1.0" encoding="utf-8"?>
<!-- Generator: Adobe Illustrator 18.1.1, SVG Export Plug-In . SVG Version: 6.00 Build 0)  -->
<svg version="1.1" id="Layer_1" xmlns="http://www.w3.org/2000/svg" xmlns:xlink="http://www.w3.org/1999/xlink" x="0px" y="0px"
	 viewBox="0 0 80 80" enable-background="new 0 0 80 80" xml:space="preserve">
<g>
	<path fill="#010101" d="M20.5,32.5C20.5,17.3,32.8,5,48,5s27.5,12.3,27.5,27.5S63.2,60,48,60c-5,0-9.7-1.3-13.8-3.7L15.5,75
		c-5.5,0-10-4.5-10-10l18.7-18.7C21.8,42.2,20.5,37.5,20.5,32.5z M65.5,32.5C65.5,22.8,57.7,15,48,15s-17.5,7.8-17.5,17.5
		S38.3,50,48,50S65.5,42.2,65.5,32.5z"/>
</g>
</svg>
