<?xml version="1.0" encoding="utf-8"?>
<!-- Generator: Adobe Illustrator 18.1.1, SVG Export Plug-In . SVG Version: 6.00 Build 0)  -->
<svg version="1.1" id="Layer_1" xmlns="http://www.w3.org/2000/svg" xmlns:xlink="http://www.w3.org/1999/xlink" x="0px" y="0px"
	 viewBox="0 0 80 80" enable-background="new 0 0 80 80" xml:space="preserve">
<path d="M67.6,5.1H12.3C7.5,5.1,5,7.2,5,12.3v55.4c0,4.8,2.5,7.3,7.3,7.3h8.9h15.1h12.3H61h6.6c5.2,0,7.4-2.4,7.4-7.3V12.3
	C75,7.2,72.8,5.1,67.6,5.1z M60.8,29.3l0,1.4c0,14.2-10.8,30.5-30.5,30.5c-6.1,0-11.7-1.8-16.5-4.8c0.8,0.1,1.7,0.1,2.6,0.1
	c5,0,9.7-1.7,13.3-4.6c-4.7-0.1-8.7-3.2-10-7.5c0.7,0.1,1.3,0.2,2,0.2c1,0,1.9-0.1,2.8-0.4c-4.9-1-8.6-5.3-8.6-10.5v-0.1
	c1.4,0.8,3.1,1.3,4.9,1.3c-2.9-1.9-4.8-5.2-4.8-8.9c0-2,0.5-3.8,1.5-5.4c5.3,6.5,13.2,10.8,22.1,11.2c-0.2-0.8-0.3-1.6-0.3-2.4
	c0-5.9,4.8-10.7,10.7-10.7c3.1,0,5.9,1.3,7.8,3.4c2.4-0.5,4.7-1.4,6.8-2.6c-0.8,2.5-2.5,4.6-4.7,5.9c2.2-0.3,4.2-0.8,6.2-1.7
	C64.7,25.9,62.9,27.8,60.8,29.3z"/>
</svg>
