<?xml version="1.0" encoding="utf-8"?>
<!-- Generator: Adobe Illustrator 18.1.1, SVG Export Plug-In . SVG Version: 6.00 Build 0)  -->
<svg version="1.1" id="Layer_1" xmlns="http://www.w3.org/2000/svg" xmlns:xlink="http://www.w3.org/1999/xlink" x="0px" y="0px"
	 viewBox="0 0 80 80" enable-background="new 0 0 80 80" xml:space="preserve">
<g>
	<path fill="#010101" d="M24,17.7h14.4V2C32.4,2.9,27.3,8.9,24,17.7z"/>
	<path fill="#010101" d="M38.3,38.4V21H22.9c-1.5,5.2-2.5,11.1-2.6,17.4H38.3z"/>
	<path fill="#010101" d="M41.6,2v15.7h14.4C52.6,8.9,47.5,2.9,41.6,2z"/>
	<path fill="#010101" d="M17,41.7H1.7C1.9,48,3.6,54,6.4,59.2c0.2-0.1,0.3-0.1,0.5-0.1h12.5C18,53.9,17.2,48,17,41.7z"/>
	<path fill="#010101" d="M62.9,41.7c-0.1,6.3-1,12.1-2.4,17.4h12.5c0.2,0,0.4,0,0.5,0.1C76.3,54,78,48,78.3,41.7H62.9z"/>
	<path fill="#010101" d="M38.3,41.7H20.3c0.1,6.3,1.1,12.2,2.6,17.4h15.5L38.3,41.7L38.3,41.7z"/>
	<path fill="#010101" d="M17,38.4c0.1-6.3,1-12.1,2.4-17.4H7c-0.2,0-0.4,0-0.5-0.1c-2.8,5.2-4.5,11.2-4.8,17.5H17z"/>
	<path fill="#010101" d="M59.6,38.4C59.5,32.1,58.6,26.2,57,21H41.6v17.4H59.6z"/>
	<path fill="#010101" d="M20.5,17.7C23,10.6,26.6,5,30.9,1.8c-9.3,2.3-17.3,8.1-22.5,16H20.5z"/>
	<path fill="#010101" d="M20.5,62.4H8.4c5.3,7.9,13.2,13.6,22.5,16C26.6,75.1,23,69.5,20.5,62.4z"/>
	<path fill="#010101" d="M59.4,17.7h12.1C66.2,9.9,58.3,4.1,49,1.8C53.3,5,56.9,10.6,59.4,17.7z"/>
	<path fill="#010101" d="M59.4,62.4c-2.5,7.1-6.1,12.7-10.4,16c9.3-2.3,17.3-8.1,22.5-16H59.4z"/>
	<path fill="#010101" d="M72.9,21H60.4c1.5,5.2,2.3,11.1,2.4,17.4h15.4c-0.3-6.3-2-12.3-4.8-17.5C73.3,21,73.1,21,72.9,21z"/>
	<path fill="#010101" d="M55.9,62.4H41.6v15.7C47.5,77.2,52.6,71.2,55.9,62.4z"/>
	<path fill="#010101" d="M41.6,41.7v17.4H57c1.5-5.2,2.5-11.1,2.6-17.4C59.6,41.7,41.6,41.7,41.6,41.7z"/>
	<path fill="#010101" d="M38.3,78.1V62.4H24C27.3,71.2,32.4,77.2,38.3,78.1z"/>
</g>
</svg>
